<svg id="Layer_1" data-name="Layer 1" xmlns="http://www.w3.org/2000/svg" viewBox="0 0 99.46 97"><defs><style>.cls-1{fill:#fff;fill-rule:evenodd;}</style></defs><title>github_logo_100</title><path class="cls-1" d="M49.61.59A49.74,49.74,0,0,0,33.89,97.51c2.49.45,3.39-1.08,3.39-2.4s0-4.31-.06-8.46C23.38,89.66,20.46,80,20.46,80c-2.26-5.74-5.52-7.27-5.52-7.27-4.51-3.09.34-3,.34-3,5,.35,7.62,5.12,7.62,5.12,4.44,7.6,11.64,5.41,14.47,4.13a10.65,10.65,0,0,1,3.16-6.64c-11-1.26-22.65-5.53-22.65-24.58A19.25,19.25,0,0,1,23,34.37c-.51-1.25-2.22-6.31.49-13.16,0,0,4.17-1.33,13.67,5.1a47.24,47.24,0,0,1,24.9,0c9.5-6.43,13.66-5.1,13.66-5.1,2.72,6.85,1,11.91.5,13.16a19.24,19.24,0,0,1,5.11,13.35c0,19.1-11.63,23.31-22.71,24.54C60.41,73.79,62,76.83,62,81.47c0,6.64-.06,12-.06,13.64,0,1.33.89,2.88,3.42,2.39A49.74,49.74,0,0,0,49.61.59Z" transform="translate(0.12 -0.59)"/></svg>