<svg id="Layer_1" data-name="Layer 1" xmlns="http://www.w3.org/2000/svg" viewBox="0 0 100 99.63"><defs><style>.cls-1{fill:#fff;}</style></defs><title>linkedin_logo_100</title><path class="cls-1" d="M91,.37H9.05a9,9,0,0,0-9,9V91a9,9,0,0,0,9.05,9H91a9,9,0,0,0,9-9V9.38A9,9,0,0,0,91,.37Zm-60,86A2.62,2.62,0,0,1,28.31,89H17.11a2.63,2.63,0,0,1-2.64-2.62V39.6A2.64,2.64,0,0,1,17.11,37h11.2a2.63,2.63,0,0,1,2.63,2.63ZM22.71,32.56A10.61,10.61,0,1,1,33.35,22,10.63,10.63,0,0,1,22.71,32.56Zm66.8,54.05A2.42,2.42,0,0,1,87.08,89h-12a2.41,2.41,0,0,1-2.42-2.41v-22c0-3.28,1-14.35-8.59-14.35-7.41,0-8.91,7.58-9.22,11V86.61A2.41,2.41,0,0,1,52.41,89H40.78a2.42,2.42,0,0,1-2.42-2.41V39.39A2.42,2.42,0,0,1,40.78,37H52.41a2.42,2.42,0,0,1,2.42,2.42v4.08c2.75-4.11,6.84-7.28,15.53-7.28,19.26,0,19.15,17.92,19.15,27.77V86.61Z" transform="translate(0 -0.37)"/></svg>